# xmcd
#
# Track frame offsets:
#	150
#	12870
#	28237
#	52290
#	64167
#	81695
#	100730
#	111620
#	121110
#	139317
#	163995
#	176562
#	204742
#	217777
#
# Disc length: 3106 seconds
#
# Revision: 3
# Processed by: cddbd v1.5.2PL0 Copyright (c) Steve Scherf et al.
# Submitted via: audiograbber 1.83.01
#
DISCID=d70c200e
DTITLE=Andy Just - Don't Cry
DYEAR=1994
DGENRE=Blues
TTITLE0=talk is cheap
TTITLE1=toes up
TTITLE2=mighty long time
TTITLE3=the slam
TTITLE4=treat me right
TTITLE5=back trackin'
TTITLE6=struttin' at the rooster
TTITLE7=don't cry
TTITLE8=dance with me
TTITLE9=she's sweet
TTITLE10=misery
TTITLE11=oh why
TTITLE12=fool for lover
TTITLE13=one sunny day
EXTD=
EXTT0=
EXTT1=
EXTT2=
EXTT3=
EXTT4=
EXTT5=
EXTT6=
EXTT7=
EXTT8=
EXTT9=
EXTT10=
EXTT11=
EXTT12=
EXTT13=
PLAYORDER=
